<?xml version="1.0" standalone="no"?>
<!DOCTYPE svg PUBLIC "-//W3C//DTD SVG 20010904//EN"
 "http://www.w3.org/TR/2001/REC-SVG-20010904/DTD/svg10.dtd">
<svg version="1.0" xmlns="http://www.w3.org/2000/svg"
 width="700.000000pt" height="700.000000pt" viewBox="0 0 700.000000 700.000000"
 preserveAspectRatio="xMidYMid meet">
<metadata>
Created by potrace 1.14, written by Peter Selinger 2001-2017
</metadata>
<g transform="translate(0.000000,700.000000) scale(0.100000,-0.100000)"
fill="#000000" stroke="none">
<path d="M2347 5744 c-1 -1 -157 -5 -347 -9 -391 -7 -524 -11 -660 -19 -126
-8 -244 -18 -250 -21 -3 -2 -30 -6 -60 -9 -124 -15 -269 -80 -360 -162 -38
-34 -150 -183 -150 -199 0 -4 -8 -19 -19 -33 -49 -71 -159 -406 -175 -535 -2
-17 -9 -59 -15 -92 -12 -68 -21 -132 -25 -178 -2 -18 -6 -54 -9 -82 -25 -201
-37 -511 -37 -905 1 -413 9 -636 34 -871 3 -25 8 -75 11 -111 3 -37 7 -75 9
-85 2 -10 7 -38 11 -63 76 -496 238 -831 466 -965 62 -36 150 -70 210 -80 19
-3 41 -8 49 -10 8 -2 42 -7 75 -11 33 -3 67 -8 77 -9 17 -4 254 -16 398 -20
770 -26 3122 -26 3865 0 149 5 370 17 375 20 3 2 35 6 72 9 37 4 77 9 90 12
13 3 36 8 53 11 55 9 160 53 214 90 199 131 356 439 426 838 16 86 25 147 30
190 4 28 8 61 10 75 45 298 61 1168 30 1610 -3 47 -8 117 -11 155 -4 68 -10
129 -19 190 -2 17 -7 53 -10 80 -3 28 -10 75 -15 105 -5 30 -12 71 -15 90 -26
159 -89 360 -156 498 -142 288 -302 407 -599 446 -137 17 -396 30 -845 42
-211 5 -2723 13 -2728 8z"/>
</g>
</svg>
